<svg width="20" height="20" viewBox="0 0 20 20" fill="none" xmlns="http://www.w3.org/2000/svg">
<path fill-rule="evenodd" clip-rule="evenodd" d="M16.6409 4.43995C16.6409 5.07112 16.1196 5.5828 15.4765 5.5828C14.8335 5.5828 14.3122 5.07112 14.3122 4.43995C14.3122 3.80877 14.8335 3.29709 15.4765 3.29709C16.1196 3.29709 16.6409 3.80877 16.6409 4.43995ZM10.2971 12.6984C8.51089 12.6984 7.06282 11.2771 7.06282 9.52381C7.06282 7.77054 8.51089 6.34918 10.2971 6.34918C12.0833 6.34918 13.5314 7.77054 13.5314 9.52381C13.5314 11.2771 12.0833 12.6984 10.2971 12.6984ZM10.2971 4.63318C7.54537 4.63318 5.31456 6.82276 5.31456 9.5238C5.31456 12.2248 7.54537 14.4144 10.2971 14.4144C13.0489 14.4144 15.2797 12.2248 15.2797 9.5238C15.2797 6.82276 13.0489 4.63318 10.2971 4.63318ZM10.2971 0C7.66196 0 7.33161 0.0109375 6.29667 0.0572917C5.26392 0.103571 4.55865 0.264509 3.94138 0.5C3.30335 0.743378 2.76226 1.06905 2.22284 1.59844C1.68343 2.1279 1.35164 2.65908 1.10368 3.28534C0.863841 3.89115 0.699803 4.58341 0.652653 5.59717C0.605428 6.61295 0.59436 6.93728 0.59436 9.52381C0.59436 12.1103 0.605428 12.4347 0.652653 13.4504C0.699803 14.4641 0.863841 15.1565 1.10368 15.7623C1.35164 16.3885 1.68343 16.9196 2.22284 17.4491C2.76226 17.9786 3.30335 18.3042 3.94138 18.5476C4.55865 18.783 5.26392 18.944 6.29667 18.9903C7.33161 19.0367 7.66196 19.0476 10.2971 19.0476C12.9323 19.0476 13.2627 19.0367 14.2976 18.9903C15.3304 18.944 16.0357 18.783 16.6529 18.5476C17.291 18.3042 17.832 17.9786 18.3715 17.4491C18.9109 16.9196 19.2426 16.3885 19.4906 15.7623C19.7305 15.1565 19.8944 14.4641 19.9416 13.4504C19.9888 12.4347 20 12.1103 20 9.52381C20 6.93728 19.9888 6.61295 19.9416 5.59717C19.8944 4.58341 19.7305 3.89115 19.4906 3.28534C19.2426 2.65908 18.9109 2.1279 18.3715 1.59844C17.832 1.06905 17.291 0.743378 16.6529 0.5C16.0357 0.264509 15.3304 0.103571 14.2976 0.0572917C13.2627 0.0109375 12.9323 0 10.2971 0ZM10.2971 1.716C12.8879 1.716 13.1948 1.72568 14.2179 1.77151C15.1639 1.81392 15.6777 1.96905 16.0196 2.09941C16.4725 2.27218 16.7957 2.47858 17.1353 2.81184C17.4748 3.1451 17.6851 3.46243 17.861 3.90693C17.9939 4.24257 18.152 4.74681 18.1951 5.67538C18.2418 6.67962 18.2517 6.98081 18.2517 9.52382C18.2517 12.0667 18.2418 12.3679 18.1951 13.3723C18.152 14.3008 17.9939 14.8051 17.861 15.1407C17.6851 15.5852 17.4748 15.9025 17.1353 16.2357C16.7957 16.569 16.4725 16.7754 16.0196 16.9481C15.6777 17.0786 15.1639 17.2337 14.2179 17.2761C13.1949 17.3219 12.8881 17.3316 10.2971 17.3316C7.70623 17.3316 7.39937 17.3219 6.37641 17.2761C5.43038 17.2337 4.91659 17.0786 4.57471 16.9481C4.12179 16.7754 3.79856 16.569 3.45904 16.2357C3.11952 15.9025 2.90924 15.5852 2.73322 15.1407C2.60034 14.8051 2.44229 14.3008 2.39916 13.3723C2.35246 12.3679 2.34261 12.0667 2.34261 9.52382C2.34261 6.98081 2.35246 6.67962 2.39916 5.67538C2.44229 4.74681 2.60034 4.24257 2.73322 3.90693C2.90924 3.46243 3.11952 3.1451 3.45904 2.81184C3.79856 2.47858 4.12179 2.27218 4.57471 2.09941C4.91659 1.96905 5.43038 1.81392 6.37633 1.77151C7.39953 1.72568 7.70638 1.716 10.2971 1.716Z" fill="white"/>
</svg>
