<svg width="22" height="12" viewBox="0 0 22 12" fill="none" xmlns="http://www.w3.org/2000/svg">
<path fill-rule="evenodd" clip-rule="evenodd" d="M20.7508 0.804247C20.8925 0.340703 20.7508 0 20.0767 0H17.8475C17.2809 0 17.0194 0.294286 16.8777 0.618736C16.8777 0.618736 15.7442 3.33092 14.1383 5.09257C13.6187 5.60253 13.3826 5.76476 13.0992 5.76476C12.9575 5.76476 12.7524 5.60253 12.7524 5.13899V0.804247C12.7524 0.247869 12.5879 0 12.1155 0H8.61258C8.25847 0 8.04543 0.258184 8.04543 0.502928C8.04543 1.03024 8.84823 1.15198 8.93103 2.63545V5.85759C8.93103 6.564 8.8011 6.692 8.51768 6.692C7.76201 6.692 5.92377 3.96778 4.83357 0.850664C4.61989 0.244744 4.40557 0 3.83587 0H1.60674C0.969847 0 0.842468 0.294286 0.842468 0.618736C0.842468 1.19824 1.5983 4.07265 4.36131 7.87415C6.20337 10.4704 8.79855 11.8777 11.1602 11.8777C12.5771 11.8777 12.7524 11.5652 12.7524 11.0267V9.06458C12.7524 8.43944 12.8866 8.31456 13.3353 8.31456C13.666 8.31456 14.2327 8.47694 15.5554 9.72864C17.0667 11.2121 17.3159 11.8777 18.166 11.8777H20.3951C21.032 11.8777 21.3505 11.5652 21.1669 10.9483C20.9658 10.3335 20.2442 9.44154 19.2866 8.38411C18.7671 7.78147 17.9877 7.13242 17.7515 6.80781C17.421 6.39068 17.5154 6.20517 17.7515 5.83431C17.7515 5.83431 20.4674 2.07907 20.7508 0.804247Z" fill="white"/>
</svg>
